<svg xmlns="http://www.w3.org/2000/svg" width="30" height="30" viewBox="0 0 30 30">
    <g fill="none" fill-rule="evenodd">
        <g>
            <g>
                <g fill="#FFF">
                    <path d="M.905 21.98c-.231 0-.463-.089-.64-.266-.353-.353-.353-.926 0-1.279L20.45.265c.354-.353.926-.353 1.28 0s.354.926 0 1.28L1.545 21.714c-.176.176-.408.264-.64.264" transform="translate(-126 -243) translate(126 243) translate(4 4)"/>
                    <path d="M21.095 22c-.232 0-.464-.088-.64-.265L.267 1.562c-.353-.354-.353-.927 0-1.28.354-.353.927-.353 1.28 0l20.188 20.174c.353.353.353.926 0 1.279-.177.177-.409.265-.64.265" transform="translate(-126 -243) translate(126 243) translate(4 4)"/>
                </g>
            </g>
        </g>
    </g>
</svg>
