<?xml version="1.0" encoding="UTF-8"?>
<svg width="18px" height="22px" viewBox="0 0 18 22" version="1.1" xmlns="http://www.w3.org/2000/svg" xmlns:xlink="http://www.w3.org/1999/xlink">
    <title>comment</title>
    <g id="comment" stroke="none" stroke-width="1" fill="none" fill-rule="evenodd">
        <path d="M12.2153685,22 C17.8379509,20.645 18,17.669 18,17.341 L18,6.736 C18,6.093 17.3978045,5.569 16.6576059,5.569 C15.9174072,5.569 15.3141662,6.093 15.3141662,6.736 L15.3141662,11.748 L14.2550967,11.288 L14.2550967,2.676 C14.2550967,2.043 13.6110821,1.509 12.8478829,1.509 C12.1076843,1.509 11.5054888,2.032 11.5054888,2.676 L11.5054888,10.886 L10.432828,10.27 L10.432828,1.203 C10.432828,0.573 9.71249347,0 8.92211187,0 C8.1589127,0 7.53789859,0.54 7.53789859,1.203 L7.53789859,11.082 L6.48405646,10.609 L6.48405646,3.232 C6.48405646,2.6 5.83899634,2.066 5.07579718,2.066 C4.33559854,2.066 3.73444851,2.589 3.73444851,3.232 L3.73444851,14.048 L2.68583377,13.549 L2.68583377,10.469 C2.68583377,9.825 2.08363826,9.302 1.34343962,9.302 C0.603240983,9.302 0,9.825 0,10.468 L0,15.444 L0.0867746994,15.644 C0.427600627,16.431 1.85572399,19.164 6.25823314,22 L12.2153685,22 L12.2153685,22 Z" id="Path" fill="#00AC39" fill-rule="nonzero"></path>
    </g>
</svg>