<svg xmlns="http://www.w3.org/2000/svg" width="30" height="30" viewBox="0 0 30 30">
    <g fill="none" fill-rule="evenodd">
        <g>
            <g>
                <path fill="#FFF" d="M21.85 23.908H7.092V6.092h10.154v4.04c0 .33.267.597.598.597h4.062v6.123l-.058 7.056zm-2.57-6.55c.495 0 .897.402.897.897s-.402.896-.897.896h-9.27c-.495 0-.897-.401-.897-.896s.402-.897.897-.897zm0-4.259c.495 0 .897.402.897.897s-.402.897-.897.897h-9.27c-.495 0-.897-.402-.897-.897s.402-.897.897-.897zm-.838-6.208l2.754 2.642h-2.754V6.891zm5.236 2.124l-4.922-4.724C18.56 4.104 18.3 4 18.03 4H6.046C5.468 4 5 4.468 5 5.046v19.908C5 25.532 5.468 26 6.046 26h16.841c.575 0 1.042-.463 1.047-1.038L24 16.86V9.77c0-.285-.116-.557-.322-.755z" transform="translate(-210 -50) translate(210 50)"/>
            </g>
        </g>
    </g>
</svg>
