<svg xmlns="http://www.w3.org/2000/svg" width="30" height="30" viewBox="0 0 30 30">
    <g fill="none" fill-rule="evenodd">
        <g fill="#FFF">
            <g>
                <path d="M17.562 19.003l-2.149 5.718h1.805l.278-.944h2.006l.286.944h1.85l-2.149-5.718h-1.927zm.942 1.483l.631 2.055H17.88l.624-2.055zM22.149 24.721L23.741 24.721 23.741 19.003 22.149 19.003zM24.81 24.721L26.401 24.721 26.401 19.003 24.81 19.003zM8.803 15.17c.269 0 .538-.103.743-.308.41-.41.41-1.075 0-1.485L7.589 11.42h8.888c2.682 0 4.864 2.182 4.864 4.865 0 .535-.09 1.05-.25 1.532h2.353c.109-.494.168-1.006.168-1.532 0-3.935-3.201-7.135-7.135-7.135H7.552l1.957-1.958c.41-.41.41-1.075 0-1.484-.41-.41-1.075-.41-1.485 0L4.207 9.524c-.41.41-.41 1.075 0 1.485l3.854 3.853c.205.205.473.307.742.307M14.911 21.15H5.377c-.627 0-1.135.508-1.135 1.135s.508 1.135 1.135 1.135H14.1l.81-2.27z" transform="translate(-206.000000, -368.000000) translate(206.000000, 368.000000)"/>
            </g>
        </g>
    </g>
</svg>
